<svg width="22" height="36" viewBox="0 0 22 36" fill="none" xmlns="http://www.w3.org/2000/svg">
<g clip-path="url(#clip0_4_215)">
<path d="M11.0215 2.93302C14.1472 6.9011 15.8158 11.7944 15.7553 16.8155V18.0141L16.7865 18.6416C18.119 19.4482 19.1127 20.6993 19.5866 22.1669C19.1705 21.8605 18.7352 21.5803 18.2833 21.3278L15.5333 19.7838L15.0391 22.9001C14.9963 23.1755 14.9389 23.4485 14.8672 23.718H7.16151C7.04692 23.3655 6.95382 23.0129 6.86789 22.6463L6.24484 19.8261L3.70968 21.2362C3.28615 21.473 2.87723 21.7344 2.48507 22.0188C2.96824 20.5682 3.94123 19.3242 5.24224 18.4935L6.22336 17.866V16.7521C6.24106 11.7513 7.92967 6.89523 11.0287 2.93302H11.0215ZM11.0287 0C10.868 0.000390307 10.7128 0.0579856 10.5918 0.162162L10.5274 0.218566C6.39778 4.76564 4.10466 10.6454 4.08208 16.745C2.32967 17.8643 1.03251 19.5543 0.417263 21.5197C-0.197979 23.485 -0.0921719 25.6007 0.716194 27.4971C1.56776 25.6455 2.99131 24.1058 4.7839 23.0975C4.96368 23.8642 5.2031 24.6161 5.50005 25.3467C5.53771 25.4871 5.62118 25.6114 5.73763 25.7006C5.85408 25.7898 5.99706 25.8388 6.14458 25.8402H16.0847C16.2852 25.8402 16.4857 25.6498 16.586 25.3537C16.8758 24.6592 17.0778 23.9322 17.1875 23.1892C18.9836 24.1932 20.4083 25.7342 21.2553 27.5887C22.1124 25.7017 22.2451 23.5727 21.6287 21.5967C21.0124 19.6206 19.6888 17.9319 17.9037 16.8437C17.9745 10.7082 15.6935 4.77179 11.5157 0.218566C11.4535 0.150085 11.3773 0.0952397 11.2922 0.0575871C11.2071 0.0199344 11.1149 0.000314749 11.0215 0L11.0287 0Z" fill="#4EA8DE"/>
<path d="M11.0216 16.1596C10.4715 16.1596 9.93376 15.9993 9.47611 15.6988C9.01846 15.3984 8.6614 14.9713 8.44993 14.4714C8.23847 13.9714 8.18206 13.4211 8.28782 12.8896C8.39358 12.3582 8.65678 11.8695 9.04423 11.4851C9.43169 11.1007 9.92606 10.8378 10.465 10.7296C11.004 10.6214 11.5634 10.6727 12.0728 10.8771C12.5822 11.0814 13.0188 11.4297 13.3275 11.8779C13.6361 12.3261 13.8031 12.8543 13.8074 13.3958C13.8159 13.7468 13.7542 14.0959 13.6256 14.4234C13.4971 14.7508 13.3043 15.0501 13.0582 15.3041C12.8121 15.5582 12.5176 15.762 12.1915 15.9039C11.8654 16.0459 11.5141 16.1232 11.1576 16.1314C11.1126 16.1385 11.0666 16.1385 11.0216 16.1314V16.1596Z" fill="#4EA8DE"/>
<path d="M14.8959 27.5959C14.7167 27.5903 14.5382 27.6199 14.3708 27.6831C14.2034 27.7463 14.0505 27.8418 13.9211 27.9639C13.7917 28.0861 13.6884 28.2324 13.6172 28.3944C13.546 28.5564 13.5084 28.7308 13.5066 28.9073V33.0671C13.5066 33.4299 13.653 33.7778 13.9135 34.0343C14.1741 34.2908 14.5274 34.4349 14.8959 34.4349C15.2644 34.4349 15.6178 34.2908 15.8783 34.0343C16.1389 33.7778 16.2852 33.4299 16.2852 33.0671V28.9637C16.291 28.7879 16.2611 28.6127 16.1973 28.4483C16.1336 28.284 16.0372 28.1338 15.9139 28.0065C15.7906 27.8792 15.6428 27.7773 15.4791 27.7068C15.3154 27.6363 15.139 27.5986 14.9604 27.5959H14.8959Z" fill="#5E60CE"/>
<path d="M7.16154 27.5956C6.97931 27.5861 6.797 27.6128 6.62546 27.6741C6.45392 27.7354 6.29665 27.83 6.16302 27.9524C6.02939 28.0748 5.92213 28.2223 5.84761 28.3863C5.77309 28.5503 5.73284 28.7274 5.72925 28.907V33.0668C5.72925 33.4296 5.87562 33.7775 6.13617 34.034C6.39672 34.2905 6.7501 34.4346 7.11857 34.4346C7.48704 34.4346 7.84042 34.2905 8.10097 34.034C8.36152 33.7775 8.50789 33.4296 8.50789 33.0668V28.9634C8.51362 28.7876 8.48373 28.6124 8.41998 28.4481C8.35623 28.2837 8.25989 28.1335 8.13658 28.0062C8.01326 27.8789 7.86544 27.777 7.70173 27.7065C7.53802 27.636 7.36169 27.5983 7.18302 27.5956H7.16154Z" fill="#5E60CE"/>
<path d="M10.9213 27.596C10.7426 27.5923 10.5649 27.6232 10.3984 27.6871C10.2318 27.751 10.0797 27.8466 9.95068 27.9683C9.82167 28.0901 9.71828 28.2357 9.64644 28.3969C9.5746 28.558 9.5357 28.7315 9.53198 28.9074V34.6395C9.53198 35.0022 9.67836 35.3502 9.93891 35.6067C10.1995 35.8632 10.5528 36.0073 10.9213 36.0073C11.2898 36.0073 11.6432 35.8632 11.9037 35.6067C12.1643 35.3502 12.3106 35.0022 12.3106 34.6395V28.9991C12.3164 28.8232 12.2865 28.648 12.2227 28.4837C12.159 28.3194 12.0626 28.1692 11.9393 28.0418C11.816 27.9145 11.6682 27.8127 11.5045 27.7422C11.3408 27.6717 11.1644 27.634 10.9858 27.6313L10.9213 27.596Z" fill="#5E60CE"/>
</g>
<defs>
<clipPath id="clip0_4_215">
<rect width="22" height="36" fill="white"/>
</clipPath>
</defs>
</svg>
